<svg width="18" height="18" viewBox="0 0 18 18" fill="none" xmlns="http://www.w3.org/2000/svg">
<g id="Alarm">
<path id="Union" fill-rule="evenodd" clip-rule="evenodd" d="M4.70939 2.66394C4.97566 2.39767 4.97566 1.96597 4.70939 1.6997C4.44312 1.43343 4.01142 1.43343 3.74515 1.6997L1.6997 3.74515C1.43343 4.01142 1.43343 4.44312 1.6997 4.70939C1.96597 4.97566 2.39767 4.97566 2.66394 4.70939L4.70939 2.66394ZM14.2548 1.6997C13.9886 1.43343 13.5569 1.43343 13.2906 1.6997C13.0243 1.96597 13.0243 2.39767 13.2906 2.66394L15.3361 4.70939C15.6023 4.97566 16.034 4.97566 16.3003 4.70939C16.5666 4.44312 16.5666 4.01142 16.3003 3.74515L14.2548 1.6997ZM9.00002 4.22731C5.98756 4.22731 3.54548 6.6694 3.54548 9.68186C3.54548 12.6943 5.98756 15.1364 9.00002 15.1364C12.0125 15.1364 14.4546 12.6943 14.4546 9.68186C14.4546 6.6694 12.0125 4.22731 9.00002 4.22731ZM2.18184 9.68186C2.18184 5.91628 5.23444 2.86368 9.00002 2.86368C12.7656 2.86368 15.8182 5.91628 15.8182 9.68186C15.8182 13.4474 12.7656 16.5 9.00002 16.5C5.23444 16.5 2.18184 13.4474 2.18184 9.68186ZM8.99998 5.59092C9.37654 5.59092 9.6818 5.89618 9.6818 6.27274V9.31706L11.4236 10.4781C11.7369 10.687 11.8216 11.1103 11.6128 11.4236C11.4039 11.737 10.9806 11.8217 10.6673 11.6128L8.92523 10.4517C8.73853 10.3271 8.58521 10.1582 8.47935 9.96029C8.37351 9.76241 8.31814 9.54146 8.31816 9.31706V6.27274C8.31816 5.89618 8.62342 5.59092 8.99998 5.59092Z" fill="#262626"/>
</g>
</svg>
